<svg id="Calque_1" data-name="Calque 1" xmlns="http://www.w3.org/2000/svg" viewBox="0 0 1024 768"><defs><style>.cls-1{fill:#111722;}.cls-2{fill:#2e7eea;}</style></defs><title>Logo_strapi_blue</title><path class="cls-1" d="M503.22,394.26A22.17,22.17,0,0,1,494,412.78a31.23,31.23,0,0,1-10.17,4.77A48.32,48.32,0,0,1,471,419.16a68.34,68.34,0,0,1-12.72-1.31,58.75,58.75,0,0,1-11.94-3.47l3.08-14.94a63.71,63.71,0,0,0,10.17,3.15,48.65,48.65,0,0,0,10.64,1.16,21.41,21.41,0,0,0,8.7-1.54,5.58,5.58,0,0,0,3.47-5.55A5.39,5.39,0,0,0,479,391.5q-3.39-1.62-8.94-3.93-4.47-1.85-8.63-3.78a31.66,31.66,0,0,1-7.32-4.62,21.55,21.55,0,0,1-5.09-6.32,19.07,19.07,0,0,1-1.92-9,21.86,21.86,0,0,1,2.23-10.18,19.63,19.63,0,0,1,6.17-7.09,28.54,28.54,0,0,1,9.24-4.16A45.69,45.69,0,0,1,476.25,341a64.74,64.74,0,0,1,12.4,1.16,41.62,41.62,0,0,1,11.48,4.13l-3.23,15.05a62.86,62.86,0,0,0-9.33-3.31,37.09,37.09,0,0,0-9.78-1.31,21,21,0,0,0-7.17,1,4,4,0,0,0-2.7,4.22q0,3.07,3.24,4.62c2.16,1,4.72,2.2,7.71,3.53q3.22,1.38,7.47,3.15a37.06,37.06,0,0,1,7.94,4.54,27,27,0,0,1,6.32,6.69A17.22,17.22,0,0,1,503.22,394.26Z"/><path class="cls-1" d="M505.68,342.57h12.18V323.15H539v19.42h22.5v16.49H539v32.21a15.53,15.53,0,0,0,1.93,8.32c1.28,2.06,3.82,3.08,7.63,3.08a37.84,37.84,0,0,0,11.4-1.69l1.54,14.95a43.49,43.49,0,0,1-8.48,2.31,57.33,57.33,0,0,1-10.17.92,28.25,28.25,0,0,1-11.48-2.08,20.32,20.32,0,0,1-7.7-5.78,23.6,23.6,0,0,1-4.4-8.63,39.93,39.93,0,0,1-1.38-10.79V359.06H505.68Z"/><path class="cls-1" d="M617.57,360.6H614a30.78,30.78,0,0,0-13.1,2.46,20.07,20.07,0,0,0-8.32,7.09v47.47H571.49V342.57h20.34v13.25a21,21,0,0,1,6.86-10.32q4.69-3.71,12.56-3.7a23.83,23.83,0,0,1,6.32.77Z"/><path class="cls-1" d="M666,409.61a37.55,37.55,0,0,1-10,6.78,31.37,31.37,0,0,1-13.56,2.77,23.65,23.65,0,0,1-8.94-1.62,19.42,19.42,0,0,1-6.78-4.47,20.33,20.33,0,0,1-4.32-6.7,22.77,22.77,0,0,1-1.54-8.48q0-10.32,6.94-15.72t19-6.16c3.09-.2,6.27-.36,9.56-.46s6.26-.21,8.94-.31v-2.62q0-7.25-3.55-11t-11.09-3.77a43.39,43.39,0,0,0-11.1,1.38,42.56,42.56,0,0,0-9.25,3.55L626,348a49.79,49.79,0,0,1,13-5.16A62.78,62.78,0,0,1,654.24,341q15,0,23.51,8.16t8.55,24.2v44.23H666Zm-15.88-4.78a22.19,22.19,0,0,0,8.33-1.54,27.51,27.51,0,0,0,6.78-3.85V387.57c-2.16.21-4.47.41-6.94.62s-4.72.46-6.78.77a19.79,19.79,0,0,0-7.4,2.54q-2.77,1.77-2.77,5.93a6.56,6.56,0,0,0,2.39,5.55A10.17,10.17,0,0,0,650.08,404.83Z"/><path class="cls-1" d="M701.86,342.57h20.19v9.55A27.58,27.58,0,0,1,731.3,344a28.19,28.19,0,0,1,13.56-3,27.18,27.18,0,0,1,12.33,2.77,27.75,27.75,0,0,1,9.48,7.78,36.86,36.86,0,0,1,6.09,12,53.4,53.4,0,0,1,2.15,15.65,44.66,44.66,0,0,1-3.08,17.18A36.76,36.76,0,0,1,763.51,409a34.11,34.11,0,0,1-12.25,7.63,43.92,43.92,0,0,1-15,2.54,45.4,45.4,0,0,1-7.4-.54,48.7,48.7,0,0,1-5.85-1.31v32.06H701.86Zm35.91,14.95a17.64,17.64,0,0,0-8.86,2.15,21.3,21.3,0,0,0-5.93,4.78v37.14a21.34,21.34,0,0,0,4.62,1.16,37.81,37.81,0,0,0,5.55.38q10.79,0,15.72-6.62t4.93-17.11q0-9.39-3.93-15.64T737.77,357.52Z"/><path class="cls-1" d="M784.47,320.68a12,12,0,0,1,3.39-8.63,11.62,11.62,0,0,1,8.78-3.54,12.21,12.21,0,0,1,8.86,20.73,11.74,11.74,0,0,1-8.86,3.62,11.5,11.5,0,0,1-8.78-3.62A12.12,12.12,0,0,1,784.47,320.68Zm1.69,96.94V342.57h21.12v75.05Z"/><path class="cls-2" d="M300,315.16l-13.16-8-66.51,38.48.13,11,25.16,14.52,16.43-9.41,3.59-17.48a2.7,2.7,0,0,1,1.28-1.77l57.88-33.33a2.69,2.69,0,0,1,2.66,0l43.19,25a2.63,2.63,0,0,1,1.33,2.3l-.08,50a2.66,2.66,0,0,1-1.34,2.3l-57.26,32.88a2.67,2.67,0,0,1-2.05.26L293.87,417l-16.29,9.48,0,28.87,9.53,5.5,66.5-38.47,0-15.47,5.3-3.46,0,20.45a2.65,2.65,0,0,1-1.32,2.31l-69.15,40a2.64,2.64,0,0,1-2.66,0l-12.2-7a2.65,2.65,0,0,1-1.33-2.3l0-31.93a2.65,2.65,0,0,1,1.32-2.29l18.59-10.82a2.65,2.65,0,0,1,2.06-.26l17.42,4.93,55-31.56.08-46.91-40.54-23.46-55.51,32L267.05,364a2.66,2.66,0,0,1-1.29,1.77L247,376.56a2.67,2.67,0,0,1-2.65,0l-27.8-16a2.66,2.66,0,0,1-1.33-2.27L215,344.17a2.65,2.65,0,0,1,1.32-2.33l69.22-40a2.66,2.66,0,0,1,2.71,0l17,10.33Z"/><path class="cls-2" d="M329.85,374.07a2.67,2.67,0,0,1-1.34-.36L318,367.56a2.68,2.68,0,0,1-1.32-2.3V353.12a2.66,2.66,0,0,1,1.33-2.31l10.55-6.09a2.64,2.64,0,0,1,2.65,0l10.58,6.05a2.67,2.67,0,0,1,1.34,2.31l0,12.25a2.66,2.66,0,0,1-1.32,2.3l-10.56,6.09A2.63,2.63,0,0,1,329.85,374.07ZM322,363.73l7.89,4.61,7.9-4.56v-9.17l-7.91-4.53-7.91,4.57Z"/><path class="cls-2" d="M247,394.65a2.66,2.66,0,0,1-1.33-5l9.24-5.33a2.66,2.66,0,1,1,2.66,4.6l-9.25,5.34A2.64,2.64,0,0,1,247,394.65Z"/><path class="cls-2" d="M245,410.75a2.65,2.65,0,0,1-1.32-5l17.74-10.16a2.66,2.66,0,1,1,2.64,4.61L246.28,410.4A2.64,2.64,0,0,1,245,410.75Z"/><path class="cls-2" d="M247.86,424a2.66,2.66,0,0,1-1.31-5L268,407a2.66,2.66,0,1,1,2.6,4.63l-21.4,12A2.62,2.62,0,0,1,247.86,424Z"/></svg>